# xmcd
#
# Track frame offsets: 
#        150
#        5557
#        14051
#        30006
#        45040
#        61733
#        74284
#        90665
#        96615
#        111536
#        125755
#        148817
#        168381
#        186565
#        205958
#
# Disc length: 3200 seconds
#
# Revision: 0
# Processed by: cddbd v1.5.2PL0 Copyright (c) Steve Scherf et al.
# Submitted via: ExactAudioCopyFreeDBPlugin 1.0
#
DISCID=d70c7e0f
DTITLE=Full One  - 10th Anniversary Sampler 
DYEAR=2009
DGENRE=Hip-Hop
TTITLE0=M.I.K. (Sonoblast) - 10th Anniversary Intro
TTITLE1=Jesse Al Malik  - I rep’ for Full One
TTITLE2=Tribeca and Leeroy - Dedicated
TTITLE3=Soul-J - Sunrise Sunset
TTITLE4=Littles - Fly Away
TTITLE5=Fisto and Dj Atom - Me and my Mic
TTITLE6=Jesse Al Malik, Paura, Casus Belli, Kaer  - International Visa
TTITLE7=Various Artist - Fullone.Com Interlude
TTITLE8=Soul-J - On A Lower Note
TTITLE9=Jesse Al Malik feat Agony - Reprezent
TTITLE10=Sonoblast - Depuis le temps
TTITLE11=King Solomon feat Fam Gems - Livin Like Stars
TTITLE12=L.i.f.e Long, Sark, Jesse Al Malik, Namor - Shame To The Game
TTITLE13=Main Flow - Reach Out
TTITLE14=Sark (Sonoblast) - Days Are Longer (Instrumental)
EXTD=
EXTT0=
EXTT1=
EXTT2=
EXTT3=
EXTT4=
EXTT5=
EXTT6=
EXTT7=
EXTT8=
EXTT9=
EXTT10=
EXTT11=
EXTT12=
EXTT13=
EXTT14=
PLAYORDER=
